# xmcd CD database file
#
# Track frame offsets:
#	150
#	19166
#	40346
#	60243
#	84193
#	104608
#	128577
#	150848
#	176200
#	203050
#	221395
#	242255
#
# Disc length: 3445 seconds
#
# Revision: 0
# Processed by: cddbd v1.5.2PL0 Copyright (c) Steve Scherf et al.
# Submitted via: CDex 1.70beta2
#
DISCID=8b0d730c
DTITLE=Nikasteam - little boat
DYEAR=2008
DGENRE=Jazz
TTITLE0=princess
TTITLE1=home again
TTITLE2=green
TTITLE3=I didn't order this one
TTITLE4=little boat
TTITLE5=speed queen
TTITLE6=a way
TTITLE7=1-2-3 don't count on me
TTITLE8=too late
TTITLE9=let go
TTITLE10=silent panic
TTITLE11=travelling light
EXTD=YEAR: 2008
EXTT0=
EXTT1=
EXTT2=
EXTT3=
EXTT4=
EXTT5=
EXTT6=
EXTT7=
EXTT8=
EXTT9=
EXTT10=
EXTT11=
PLAYORDER=
